<svg data-v-423bf9ae="" xmlns="http://www.w3.org/2000/svg" viewBox="0 0 347 90" class="iconLeft"><!----><!----><!----><g data-v-423bf9ae="" id="b0832fc6-caf4-41e9-8e64-6015adcb2dbd" fill="#FFFFFF" transform="matrix(5.6980053264473165,0,0,5.6980053264473165,108.46055064084774,-7.735042022120943)"><path d="M4.77 14.35L4.77 12.74L3.43 12.74L3.43 8.61L4.89 8.61L4.89 7.00L3.43 7.00L3.43 5.01L1.57 5.01L1.57 6.22C1.57 6.72 1.40 7.00 0.84 7.00L0.32 7.00L0.32 8.61L1.36 8.61L1.36 12.21C1.36 13.61 2.11 14.35 3.54 14.35ZM9.25 14.52C11.41 14.52 12.70 13.03 12.70 10.67C12.70 8.30 11.41 6.83 9.25 6.83C7.10 6.83 5.81 8.30 5.81 10.67C5.81 13.03 7.10 14.52 9.25 14.52ZM9.25 12.88C8.44 12.88 7.97 12.35 7.97 11.42L7.97 9.93C7.97 9.00 8.44 8.47 9.25 8.47C10.07 8.47 10.54 9.00 10.54 9.93L10.54 11.42C10.54 12.35 10.07 12.88 9.25 12.88ZM17.15 14.52C19.31 14.52 20.59 13.03 20.59 10.67C20.59 8.30 19.31 6.83 17.15 6.83C14.99 6.83 13.71 8.30 13.71 10.67C13.71 13.03 14.99 14.52 17.15 14.52ZM17.15 12.88C16.34 12.88 15.86 12.35 15.86 11.42L15.86 9.93C15.86 9.00 16.34 8.47 17.15 8.47C17.96 8.47 18.44 9.00 18.44 9.93L18.44 11.42C18.44 12.35 17.96 12.88 17.15 12.88ZM25.06 14.35L25.06 12.74L24.14 12.74L24.14 3.99L22.06 3.99L22.06 12.33C22.06 13.64 22.71 14.35 24.12 14.35ZM30.81 14.35L32.89 14.35L32.89 3.99L30.81 3.99L30.81 8.23L30.74 8.23C30.53 7.42 29.72 6.83 28.77 6.83C26.91 6.83 25.94 8.18 25.94 10.67C25.94 13.16 26.91 14.52 28.77 14.52C29.72 14.52 30.53 13.92 30.74 13.12L30.81 13.12ZM29.46 12.84C28.67 12.84 28.10 12.24 28.10 11.31L28.10 10.04C28.10 9.11 28.67 8.51 29.46 8.51C30.24 8.51 30.81 8.92 30.81 9.59L30.81 11.76C30.81 12.43 30.24 12.84 29.46 12.84ZM34.82 14.35L36.89 14.35L36.89 13.12L36.96 13.12C37.17 13.92 37.98 14.52 38.93 14.52C40.80 14.52 41.76 13.16 41.76 10.67C41.76 8.18 40.80 6.83 38.93 6.83C37.98 6.83 37.17 7.42 36.96 8.23L36.89 8.23L36.89 3.99L34.82 3.99ZM38.25 12.84C37.46 12.84 36.89 12.43 36.89 11.76L36.89 9.59C36.89 8.92 37.46 8.51 38.25 8.51C39.03 8.51 39.61 9.11 39.61 10.04L39.61 11.31C39.61 12.24 39.03 12.84 38.25 12.84Z"></path></g><!----><g data-v-423bf9ae="" id="a9136783-1252-4ef5-aeac-92eb25e10ad6" transform="matrix(2.839116650912489,0,0,2.839116650912489,-31.923970418647997,-25.91987459152955)" stroke="none" fill="#757CCE"><switch><g><path d="M15.3 15.9c-.8 0-1.5-.3-2.1-.9l-1.4-1.4L16 9.3l1.4 1.4c.6.6.9 1.3.9 2.1s-.3 1.6-.9 2.1c-.5.7-1.3 1-2.1 1zm-.7-2.3c.4.4 1 .4 1.4 0 .2-.2.3-.4.3-.7 0-.3-.1-.5-.3-.7l-1.4 1.4z"></path><path d="M17.442 13.527l6.334 6.109-1.388 1.44-6.335-6.11zM33.359 29.19l5.444 5.444-1.414 1.414-5.444-5.444z"></path><path d="M38.1 40.4c-1.3 0-2.6-.5-3.5-1.5l-6.1-6.1 1.4-1.4 6.1 6.1c1.2 1.2 3.1 1.2 4.2 0 1.2-1.2 1.2-3.1 0-4.2l-6.1-6.1 1.4-1.4 6.1 6.1c2 2 2 5.1 0 7.1-1 .9-2.2 1.4-3.5 1.4z"></path><g><path d="M34.8 24.3c-1.9 0-3.6-.7-5-2.1s-2.1-3.1-2.1-4.9c0-1.9.7-3.6 2.1-5l1.8-1.8 1.4 1.4-1.8 1.8c-.9.9-1.5 2.2-1.5 3.5s.5 2.6 1.5 3.5 2.2 1.5 3.5 1.5c1.3 0 2.6-.5 3.5-1.5l1.8-1.8 1.4 1.4-1.8 1.8c-1.1 1.5-2.9 2.2-4.8 2.2z"></path><path d="M41.6 20.5l-2.1-2.1-.7.6c-.8.8-1.8 1.2-2.8 1.2-1.1 0-2.1-.4-2.8-1.2-.8-.8-1.2-1.8-1.2-2.8 0-1.1.4-2.1 1.2-2.8l.7-.7-2.1-2.1 1.4-1.4 3.5 3.5-2.1 2.1c-.4.4-.6.9-.6 1.4s.2 1 .6 1.4.9.6 1.4.6c.5 0 1-.2 1.4-.6l2.1-2.1L43 19l-1.4 1.5zM15.4 34.8h2v2h-2z"></path><g><path d="M25.91 21.737l3.982 3.937-1.406 1.423-3.982-3.938z"></path></g><g><path d="M16.3 40.9c-1.3 0-2.6-.5-3.5-1.5-.9-.9-1.5-2.2-1.5-3.5s.5-2.6 1.5-3.5l.1-.1 10.3-7.5 1.2 1.6-10.3 7.5c-.5.6-.8 1.3-.8 2.1s.3 1.6.9 2.1c1.1 1.1 3.1 1.1 4.2.1l7.5-10.3 1.6 1.2-7.6 10.5c-1 .7-2.2 1.3-3.6 1.3z"></path></g></g></g></switch></g><!----></svg>