<svg data-v-423bf9ae="" xmlns="http://www.w3.org/2000/svg" viewBox="0 0 236.12533290295727 60" class="font"><!----><!----><!----><g data-v-423bf9ae="" id="0faa2994-3063-47d8-a10e-17968eb09ae6" fill="white" transform="matrix(5.6980053264473165,0,0,5.6980053264473165,-1.8233620178436638,-22.735042022120943)"><path d="M4.77 14.35L4.77 12.74L3.43 12.74L3.43 8.61L4.89 8.61L4.89 7.00L3.43 7.00L3.43 5.01L1.57 5.01L1.57 6.22C1.57 6.72 1.40 7.00 0.84 7.00L0.32 7.00L0.32 8.61L1.36 8.61L1.36 12.21C1.36 13.61 2.11 14.35 3.54 14.35ZM9.25 14.52C11.41 14.52 12.70 13.03 12.70 10.67C12.70 8.30 11.41 6.83 9.25 6.83C7.10 6.83 5.81 8.30 5.81 10.67C5.81 13.03 7.10 14.52 9.25 14.52ZM9.25 12.88C8.44 12.88 7.97 12.35 7.97 11.42L7.97 9.93C7.97 9.00 8.44 8.47 9.25 8.47C10.07 8.47 10.54 9.00 10.54 9.93L10.54 11.42C10.54 12.35 10.07 12.88 9.25 12.88ZM17.15 14.52C19.31 14.52 20.59 13.03 20.59 10.67C20.59 8.30 19.31 6.83 17.15 6.83C14.99 6.83 13.71 8.30 13.71 10.67C13.71 13.03 14.99 14.52 17.15 14.52ZM17.15 12.88C16.34 12.88 15.86 12.35 15.86 11.42L15.86 9.93C15.86 9.00 16.34 8.47 17.15 8.47C17.96 8.47 18.44 9.00 18.44 9.93L18.44 11.42C18.44 12.35 17.96 12.88 17.15 12.88ZM25.06 14.35L25.06 12.74L24.14 12.74L24.14 3.99L22.06 3.99L22.06 12.33C22.06 13.64 22.71 14.35 24.12 14.35ZM30.81 14.35L32.89 14.35L32.89 3.99L30.81 3.99L30.81 8.23L30.74 8.23C30.53 7.42 29.72 6.83 28.77 6.83C26.91 6.83 25.94 8.18 25.94 10.67C25.94 13.16 26.91 14.52 28.77 14.52C29.72 14.52 30.53 13.92 30.74 13.12L30.81 13.12ZM29.46 12.84C28.67 12.84 28.10 12.24 28.10 11.31L28.10 10.04C28.10 9.11 28.67 8.51 29.46 8.51C30.24 8.51 30.81 8.92 30.81 9.59L30.81 11.76C30.81 12.43 30.24 12.84 29.46 12.84ZM34.82 14.35L36.89 14.35L36.89 13.12L36.96 13.12C37.17 13.92 37.98 14.52 38.93 14.52C40.80 14.52 41.76 13.16 41.76 10.67C41.76 8.18 40.80 6.83 38.93 6.83C37.98 6.83 37.17 7.42 36.96 8.23L36.89 8.23L36.89 3.99L34.82 3.99ZM38.25 12.84C37.46 12.84 36.89 12.43 36.89 11.76L36.89 9.59C36.89 8.92 37.46 8.51 38.25 8.51C39.03 8.51 39.61 9.11 39.61 10.04L39.61 11.31C39.61 12.24 39.03 12.84 38.25 12.84Z"></path></g><!----><!----></svg>